<svg width="64" height="64" viewBox="0 0 64 64" fill="none" xmlns="http://www.w3.org/2000/svg">
  <rect width="64" height="64" rx="16" fill="#141414"/>
  <rect x="0.5" y="0.5" width="63" height="63" rx="15.5" stroke="#2C2C2C" stroke-width="1"/>
  <svg x="12" y="12" width="40" height="40" viewBox="0 0 48 48" fill="none">
    <g color="#F26A4B" fill="currentColor" stroke="currentColor">
      <path fill="none" stroke-width="2.5" stroke-linecap="round" stroke-linejoin="round" d="M 7 16 V 31 A 4 4 0 0 0 11 35 H 22 Q 26 35 28 31.5 M 7 16 A 4 4 0 0 1 11 12 H 30 A 4 4 0 0 1 34 16 V 24" />
      <path stroke="none" d="M 35 23 Q 35 31 42 31 Q 35 31 35 39 Q 35 31 28 31 Q 35 31 35 23 Z" />
      <rect x="12" y="17" width="17" height="2.5" rx="1.25" stroke="none" />
      <rect x="12" y="22" width="14" height="2.5" rx="1.25" stroke="none" />
      <rect x="12" y="27" width="9" height="2.5" rx="1.25" stroke="none" />
    </g>
  </svg>
</svg>
